<svg width="267" height="93" viewBox="0 0 267 93" fill="none" xmlns="http://www.w3.org/2000/svg">
<g filter="url(#filter0_b_1_45)">
<rect x="1" y="1" width="265" height="91" rx="8" fill="#283036" fill-opacity="0.2"/>
<rect x="0.5" y="0.5" width="266" height="92" rx="8.5" stroke="url(#paint0_linear_1_45)"/>
</g>
<path d="M35.336 40L31.176 32.772H28.914V40H25.95V21.93H32.19C33.5767 21.93 34.7467 22.1727 35.7 22.658C36.6707 23.1433 37.39 23.7933 37.858 24.608C38.3433 25.4227 38.586 26.3327 38.586 27.338C38.586 28.5167 38.2393 29.5913 37.546 30.562C36.87 31.5153 35.8213 32.1653 34.4 32.512L38.872 40H35.336ZM28.914 30.406H32.19C33.2993 30.406 34.1313 30.1287 34.686 29.574C35.258 29.0193 35.544 28.274 35.544 27.338C35.544 26.402 35.2667 25.674 34.712 25.154C34.1573 24.6167 33.3167 24.348 32.19 24.348H28.914V30.406ZM48.9817 40.234C47.6297 40.234 46.4077 39.9307 45.3157 39.324C44.2237 38.7 43.3657 37.8333 42.7417 36.724C42.1177 35.5973 41.8057 34.2973 41.8057 32.824C41.8057 31.368 42.1264 30.0767 42.7677 28.95C43.4091 27.8233 44.2844 26.9567 45.3937 26.35C46.5031 25.7433 47.7424 25.44 49.1117 25.44C50.4811 25.44 51.7204 25.7433 52.8297 26.35C53.9391 26.9567 54.8144 27.8233 55.4557 28.95C56.0971 30.0767 56.4177 31.368 56.4177 32.824C56.4177 34.28 56.0884 35.5713 55.4297 36.698C54.7711 37.8247 53.8697 38.7 52.7257 39.324C51.5991 39.9307 50.3511 40.234 48.9817 40.234ZM48.9817 37.66C49.7444 37.66 50.4551 37.478 51.1137 37.114C51.7897 36.75 52.3357 36.204 52.7517 35.476C53.1677 34.748 53.3757 33.864 53.3757 32.824C53.3757 31.784 53.1764 30.9087 52.7777 30.198C52.3791 29.47 51.8504 28.924 51.1917 28.56C50.5331 28.196 49.8224 28.014 49.0597 28.014C48.2971 28.014 47.5864 28.196 46.9277 28.56C46.2864 28.924 45.7751 29.47 45.3937 30.198C45.0124 30.9087 44.8217 31.784 44.8217 32.824C44.8217 34.3667 45.2117 35.5627 45.9917 36.412C46.7891 37.244 47.7857 37.66 48.9817 37.66ZM66.9658 25.44C68.0925 25.44 69.0978 25.674 69.9818 26.142C70.8831 26.61 71.5851 27.3033 72.0878 28.222C72.5905 29.1407 72.8418 30.25 72.8418 31.55V40H69.9038V31.992C69.9038 30.7093 69.5831 29.73 68.9418 29.054C68.3005 28.3607 67.4251 28.014 66.3158 28.014C65.2065 28.014 64.3225 28.3607 63.6638 29.054C63.0225 29.73 62.7018 30.7093 62.7018 31.992V40H59.7378V25.674H62.7018V27.312C63.1871 26.7227 63.8025 26.2633 64.5478 25.934C65.3105 25.6047 66.1165 25.44 66.9658 25.44ZM76.0246 32.772C76.0246 31.3333 76.3192 30.0593 76.9086 28.95C77.5152 27.8407 78.3299 26.9827 79.3526 26.376C80.3926 25.752 81.5366 25.44 82.7846 25.44C83.9112 25.44 84.8906 25.6653 85.7226 26.116C86.5719 26.5493 87.2479 27.0953 87.7506 27.754V25.674H90.7406V40H87.7506V37.868C87.2479 38.544 86.5632 39.1073 85.6966 39.558C84.8299 40.0087 83.8419 40.234 82.7326 40.234C81.5019 40.234 80.3752 39.922 79.3526 39.298C78.3299 38.6567 77.5152 37.7727 76.9086 36.646C76.3192 35.502 76.0246 34.2107 76.0246 32.772ZM87.7506 32.824C87.7506 31.836 87.5426 30.978 87.1266 30.25C86.7279 29.522 86.1992 28.9673 85.5406 28.586C84.8819 28.2047 84.1712 28.014 83.4086 28.014C82.6459 28.014 81.9352 28.2047 81.2766 28.586C80.6179 28.95 80.0806 29.496 79.6646 30.224C79.2659 30.9347 79.0666 31.784 79.0666 32.772C79.0666 33.76 79.2659 34.6267 79.6646 35.372C80.0806 36.1173 80.6179 36.6893 81.2766 37.088C81.9526 37.4693 82.6632 37.66 83.4086 37.66C84.1712 37.66 84.8819 37.4693 85.5406 37.088C86.1992 36.7067 86.7279 36.152 87.1266 35.424C87.5426 34.6787 87.7506 33.812 87.7506 32.824ZM97.9877 20.76V40H95.0237V20.76H97.9877ZM101.281 32.772C101.281 31.3333 101.576 30.0593 102.165 28.95C102.772 27.8407 103.586 26.9827 104.609 26.376C105.649 25.752 106.802 25.44 108.067 25.44C109.003 25.44 109.922 25.648 110.823 26.064C111.742 26.4627 112.47 27 113.007 27.676V20.76H115.997V40H113.007V37.842C112.522 38.5353 111.846 39.1073 110.979 39.558C110.13 40.0087 109.15 40.234 108.041 40.234C106.793 40.234 105.649 39.922 104.609 39.298C103.586 38.6567 102.772 37.7727 102.165 36.646C101.576 35.502 101.281 34.2107 101.281 32.772ZM113.007 32.824C113.007 31.836 112.799 30.978 112.383 30.25C111.984 29.522 111.456 28.9673 110.797 28.586C110.138 28.2047 109.428 28.014 108.665 28.014C107.902 28.014 107.192 28.2047 106.533 28.586C105.874 28.95 105.337 29.496 104.921 30.224C104.522 30.9347 104.323 31.784 104.323 32.772C104.323 33.76 104.522 34.6267 104.921 35.372C105.337 36.1173 105.874 36.6893 106.533 37.088C107.209 37.4693 107.92 37.66 108.665 37.66C109.428 37.66 110.138 37.4693 110.797 37.088C111.456 36.7067 111.984 36.152 112.383 35.424C112.799 34.6787 113.007 33.812 113.007 32.824ZM136.81 40L132.65 32.772H130.388V40H127.424V21.93H133.664C135.051 21.93 136.221 22.1727 137.174 22.658C138.145 23.1433 138.864 23.7933 139.332 24.608C139.817 25.4227 140.06 26.3327 140.06 27.338C140.06 28.5167 139.713 29.5913 139.02 30.562C138.344 31.5153 137.295 32.1653 135.874 32.512L140.346 40H136.81ZM130.388 30.406H133.664C134.773 30.406 135.605 30.1287 136.16 29.574C136.732 29.0193 137.018 28.274 137.018 27.338C137.018 26.402 136.741 25.674 136.186 25.154C135.631 24.6167 134.791 24.348 133.664 24.348H130.388V30.406ZM145.75 23.776C145.213 23.776 144.762 23.594 144.398 23.23C144.034 22.866 143.852 22.4153 143.852 21.878C143.852 21.3407 144.034 20.89 144.398 20.526C144.762 20.162 145.213 19.98 145.75 19.98C146.27 19.98 146.712 20.162 147.076 20.526C147.44 20.89 147.622 21.3407 147.622 21.878C147.622 22.4153 147.44 22.866 147.076 23.23C146.712 23.594 146.27 23.776 145.75 23.776ZM147.206 25.674V40H144.242V25.674H147.206ZM150.499 32.824C150.499 31.3507 150.794 30.0593 151.383 28.95C151.99 27.8233 152.822 26.9567 153.879 26.35C154.937 25.7433 156.15 25.44 157.519 25.44C159.253 25.44 160.683 25.856 161.809 26.688C162.953 27.5027 163.725 28.6727 164.123 30.198H160.925C160.665 29.4873 160.249 28.9327 159.677 28.534C159.105 28.1353 158.386 27.936 157.519 27.936C156.306 27.936 155.335 28.3693 154.607 29.236C153.897 30.0853 153.541 31.2813 153.541 32.824C153.541 34.3667 153.897 35.5713 154.607 36.438C155.335 37.3047 156.306 37.738 157.519 37.738C159.235 37.738 160.371 36.984 160.925 35.476H164.123C163.707 36.932 162.927 38.0933 161.783 38.96C160.639 39.8093 159.218 40.234 157.519 40.234C156.15 40.234 154.937 39.9307 153.879 39.324C152.822 38.7 151.99 37.8333 151.383 36.724C150.794 35.5973 150.499 34.2973 150.499 32.824ZM174.877 25.44C175.969 25.44 176.94 25.674 177.789 26.142C178.656 26.61 179.332 27.3033 179.817 28.222C180.32 29.1407 180.571 30.25 180.571 31.55V40H177.633V31.992C177.633 30.7093 177.313 29.73 176.671 29.054C176.03 28.3607 175.155 28.014 174.045 28.014C172.936 28.014 172.052 28.3607 171.393 29.054C170.752 29.73 170.431 30.7093 170.431 31.992V40H167.467V20.76H170.431V27.338C170.934 26.7313 171.567 26.2633 172.329 25.934C173.109 25.6047 173.959 25.44 174.877 25.44ZM183.754 32.772C183.754 31.3333 184.049 30.0593 184.638 28.95C185.245 27.8407 186.059 26.9827 187.082 26.376C188.122 25.752 189.266 25.44 190.514 25.44C191.641 25.44 192.62 25.6653 193.452 26.116C194.301 26.5493 194.977 27.0953 195.48 27.754V25.674H198.47V40H195.48V37.868C194.977 38.544 194.293 39.1073 193.426 39.558C192.559 40.0087 191.571 40.234 190.462 40.234C189.231 40.234 188.105 39.922 187.082 39.298C186.059 38.6567 185.245 37.7727 184.638 36.646C184.049 35.502 183.754 34.2107 183.754 32.772ZM195.48 32.824C195.48 31.836 195.272 30.978 194.856 30.25C194.457 29.522 193.929 28.9673 193.27 28.586C192.611 28.2047 191.901 28.014 191.138 28.014C190.375 28.014 189.665 28.2047 189.006 28.586C188.347 28.95 187.81 29.496 187.394 30.224C186.995 30.9347 186.796 31.784 186.796 32.772C186.796 33.76 186.995 34.6267 187.394 35.372C187.81 36.1173 188.347 36.6893 189.006 37.088C189.682 37.4693 190.393 37.66 191.138 37.66C191.901 37.66 192.611 37.4693 193.27 37.088C193.929 36.7067 194.457 36.152 194.856 35.424C195.272 34.6787 195.48 33.812 195.48 32.824ZM205.717 27.754C206.15 27.026 206.722 26.4627 207.433 26.064C208.161 25.648 209.019 25.44 210.007 25.44V28.508H209.253C208.092 28.508 207.208 28.8027 206.601 29.392C206.012 29.9813 205.717 31.004 205.717 32.46V40H202.753V25.674H205.717V27.754ZM212.134 32.772C212.134 31.3333 212.428 30.0593 213.018 28.95C213.624 27.8407 214.439 26.9827 215.462 26.376C216.502 25.752 217.654 25.44 218.92 25.44C219.856 25.44 220.774 25.648 221.676 26.064C222.594 26.4627 223.322 27 223.86 27.676V20.76H226.85V40H223.86V37.842C223.374 38.5353 222.698 39.1073 221.832 39.558C220.982 40.0087 220.003 40.234 218.894 40.234C217.646 40.234 216.502 39.922 215.462 39.298C214.439 38.6567 213.624 37.7727 213.018 36.646C212.428 35.502 212.134 34.2107 212.134 32.772ZM223.86 32.824C223.86 31.836 223.652 30.978 223.236 30.25C222.837 29.522 222.308 28.9673 221.65 28.586C220.991 28.2047 220.28 28.014 219.518 28.014C218.755 28.014 218.044 28.2047 217.386 28.586C216.727 28.95 216.19 29.496 215.774 30.224C215.375 30.9347 215.176 31.784 215.176 32.772C215.176 33.76 215.375 34.6267 215.774 35.372C216.19 36.1173 216.727 36.6893 217.386 37.088C218.062 37.4693 218.772 37.66 219.518 37.66C220.28 37.66 220.991 37.4693 221.65 37.088C222.308 36.7067 222.837 36.152 223.236 35.424C223.652 34.6787 223.86 33.812 223.86 32.824ZM236.333 40.234C235.206 40.234 234.192 40.0347 233.291 39.636C232.407 39.22 231.705 38.6653 231.185 37.972C230.665 37.2613 230.387 36.4727 230.353 35.606H233.421C233.473 36.2127 233.759 36.724 234.279 37.14C234.816 37.5387 235.483 37.738 236.281 37.738C237.113 37.738 237.754 37.582 238.205 37.27C238.673 36.9407 238.907 36.5247 238.907 36.022C238.907 35.4847 238.647 35.086 238.127 34.826C237.624 34.566 236.818 34.28 235.709 33.968C234.634 33.6733 233.759 33.3873 233.083 33.11C232.407 32.8327 231.817 32.408 231.315 31.836C230.829 31.264 230.587 30.51 230.587 29.574C230.587 28.8113 230.812 28.118 231.263 27.494C231.713 26.8527 232.355 26.35 233.187 25.986C234.036 25.622 235.007 25.44 236.099 25.44C237.728 25.44 239.037 25.856 240.025 26.688C241.03 27.5027 241.567 28.6207 241.637 30.042H238.673C238.621 29.4007 238.361 28.8893 237.893 28.508C237.425 28.1267 236.792 27.936 235.995 27.936C235.215 27.936 234.617 28.0833 234.201 28.378C233.785 28.6727 233.577 29.0627 233.577 29.548C233.577 29.9293 233.715 30.25 233.993 30.51C234.27 30.77 234.608 30.978 235.007 31.134C235.405 31.2727 235.995 31.4547 236.775 31.68C237.815 31.9573 238.664 32.2433 239.323 32.538C239.999 32.8153 240.579 33.2313 241.065 33.786C241.55 34.3407 241.801 35.0773 241.819 35.996C241.819 36.8107 241.593 37.5387 241.143 38.18C240.692 38.8213 240.051 39.324 239.219 39.688C238.404 40.052 237.442 40.234 236.333 40.234Z" fill="#FFFDFD" fill-opacity="0.78"/>
<path d="M32.688 62.112C32.688 63.04 32.368 63.8133 31.728 64.432C31.0987 65.04 30.1333 65.344 28.832 65.344H26.688V70H25.232V58.848H28.832C30.0907 58.848 31.0453 59.152 31.696 59.76C32.3573 60.368 32.688 61.152 32.688 62.112ZM28.832 64.144C29.6427 64.144 30.24 63.968 30.624 63.616C31.008 63.264 31.2 62.7627 31.2 62.112C31.2 60.736 30.4107 60.048 28.832 60.048H26.688V64.144H28.832ZM35.9536 62.656C36.2096 62.1547 36.5723 61.7653 37.0416 61.488C37.5216 61.2107 38.103 61.072 38.7856 61.072V62.576H38.4016C36.7696 62.576 35.9536 63.4613 35.9536 65.232V70H34.4976V61.232H35.9536V62.656ZM44.2904 70.144C43.469 70.144 42.7224 69.9573 42.0504 69.584C41.389 69.2107 40.8664 68.6827 40.4824 68C40.109 67.3067 39.9224 66.5067 39.9224 65.6C39.9224 64.704 40.1144 63.9147 40.4984 63.232C40.893 62.5387 41.4264 62.0107 42.0984 61.648C42.7704 61.2747 43.5224 61.088 44.3544 61.088C45.1864 61.088 45.9384 61.2747 46.6104 61.648C47.2824 62.0107 47.8104 62.5333 48.1944 63.216C48.589 63.8987 48.7864 64.6933 48.7864 65.6C48.7864 66.5067 48.5837 67.3067 48.1784 68C47.7837 68.6827 47.245 69.2107 46.5624 69.584C45.8797 69.9573 45.1224 70.144 44.2904 70.144ZM44.2904 68.864C44.813 68.864 45.3037 68.7413 45.7624 68.496C46.221 68.2507 46.589 67.8827 46.8664 67.392C47.1544 66.9013 47.2984 66.304 47.2984 65.6C47.2984 64.896 47.1597 64.2987 46.8824 63.808C46.605 63.3173 46.2424 62.9547 45.7944 62.72C45.3464 62.4747 44.861 62.352 44.3384 62.352C43.805 62.352 43.3144 62.4747 42.8664 62.72C42.429 62.9547 42.077 63.3173 41.8104 63.808C41.5437 64.2987 41.4104 64.896 41.4104 65.6C41.4104 66.3147 41.5384 66.9173 41.7944 67.408C42.061 67.8987 42.413 68.2667 42.8504 68.512C43.2877 68.7467 43.7677 68.864 44.2904 68.864ZM50.1568 65.584C50.1568 64.688 50.3381 63.904 50.7008 63.232C51.0634 62.5493 51.5594 62.0213 52.1888 61.648C52.8288 61.2747 53.5434 61.088 54.3328 61.088C55.0154 61.088 55.6501 61.248 56.2368 61.568C56.8234 61.8773 57.2714 62.288 57.5808 62.8V58.16H59.0528V70H57.5808V68.352C57.2928 68.8747 56.8661 69.3067 56.3008 69.648C55.7354 69.9787 55.0741 70.144 54.3168 70.144C53.5381 70.144 52.8288 69.952 52.1888 69.568C51.5594 69.184 51.0634 68.6453 50.7008 67.952C50.3381 67.2587 50.1568 66.4693 50.1568 65.584ZM57.5808 65.6C57.5808 64.9387 57.4474 64.3627 57.1808 63.872C56.9141 63.3813 56.5514 63.008 56.0928 62.752C55.6448 62.4853 55.1488 62.352 54.6048 62.352C54.0608 62.352 53.5648 62.48 53.1168 62.736C52.6688 62.992 52.3114 63.3653 52.0448 63.856C51.7781 64.3467 51.6448 64.9227 51.6448 65.584C51.6448 66.256 51.7781 66.8427 52.0448 67.344C52.3114 67.8347 52.6688 68.2133 53.1168 68.48C53.5648 68.736 54.0608 68.864 54.6048 68.864C55.1488 68.864 55.6448 68.736 56.0928 68.48C56.5514 68.2133 56.9141 67.8347 57.1808 67.344C57.4474 66.8427 57.5808 66.2613 57.5808 65.6ZM69.2893 61.232V70H67.8333V68.704C67.5559 69.152 67.1666 69.504 66.6653 69.76C66.1746 70.0053 65.6306 70.128 65.0333 70.128C64.3506 70.128 63.7373 69.9893 63.1933 69.712C62.6493 69.424 62.2173 68.9973 61.8973 68.432C61.5879 67.8667 61.4333 67.1787 61.4333 66.368V61.232H62.8733V66.176C62.8733 67.04 63.0919 67.7067 63.5293 68.176C63.9666 68.6347 64.5639 68.864 65.3213 68.864C66.0999 68.864 66.7133 68.624 67.1613 68.144C67.6093 67.664 67.8333 66.9653 67.8333 66.048V61.232H69.2893ZM71.2036 65.6C71.2036 64.6933 71.385 63.904 71.7476 63.232C72.1103 62.5493 72.6116 62.0213 73.2516 61.648C73.9023 61.2747 74.6436 61.088 75.4756 61.088C76.553 61.088 77.4383 61.3493 78.1316 61.872C78.8356 62.3947 79.2996 63.12 79.5236 64.048H77.9556C77.8063 63.5147 77.513 63.0933 77.0756 62.784C76.649 62.4747 76.1156 62.32 75.4756 62.32C74.6436 62.32 73.9716 62.608 73.4596 63.184C72.9476 63.7493 72.6916 64.5547 72.6916 65.6C72.6916 66.656 72.9476 67.472 73.4596 68.048C73.9716 68.624 74.6436 68.912 75.4756 68.912C76.1156 68.912 76.649 68.7627 77.0756 68.464C77.5023 68.1653 77.7956 67.7387 77.9556 67.184H79.5236C79.289 68.08 78.8196 68.8 78.1156 69.344C77.4116 69.8773 76.5316 70.144 75.4756 70.144C74.6436 70.144 73.9023 69.9573 73.2516 69.584C72.6116 69.2107 72.1103 68.6827 71.7476 68C71.385 67.3173 71.2036 66.5173 71.2036 65.6ZM83.2424 62.432V67.6C83.2424 68.0267 83.333 68.3307 83.5144 68.512C83.6957 68.6827 84.0104 68.768 84.4584 68.768H85.5304V70H84.2184C83.4077 70 82.7997 69.8133 82.3944 69.44C81.989 69.0667 81.7864 68.4533 81.7864 67.6V62.432H80.6504V61.232H81.7864V59.024H83.2424V61.232H85.5304V62.432H83.2424ZM102.872 58.928V70H101.416V61.744L97.7361 70H96.7121L93.0161 61.728V70H91.5601V58.928H93.1281L97.2241 68.08L101.32 58.928H102.872ZM104.797 65.584C104.797 64.688 104.979 63.904 105.341 63.232C105.704 62.5493 106.2 62.0213 106.829 61.648C107.469 61.2747 108.179 61.088 108.957 61.088C109.725 61.088 110.392 61.2533 110.957 61.584C111.523 61.9147 111.944 62.3307 112.221 62.832V61.232H113.693V70H112.221V68.368C111.933 68.88 111.501 69.3067 110.925 69.648C110.36 69.9787 109.699 70.144 108.941 70.144C108.163 70.144 107.459 69.952 106.829 69.568C106.2 69.184 105.704 68.6453 105.341 67.952C104.979 67.2587 104.797 66.4693 104.797 65.584ZM112.221 65.6C112.221 64.9387 112.088 64.3627 111.821 63.872C111.555 63.3813 111.192 63.008 110.733 62.752C110.285 62.4853 109.789 62.352 109.245 62.352C108.701 62.352 108.205 62.48 107.757 62.736C107.309 62.992 106.952 63.3653 106.685 63.856C106.419 64.3467 106.285 64.9227 106.285 65.584C106.285 66.256 106.419 66.8427 106.685 67.344C106.952 67.8347 107.309 68.2133 107.757 68.48C108.205 68.736 108.701 68.864 109.245 68.864C109.789 68.864 110.285 68.736 110.733 68.48C111.192 68.2133 111.555 67.8347 111.821 67.344C112.088 66.8427 112.221 66.2613 112.221 65.6ZM120.426 61.072C121.493 61.072 122.357 61.3973 123.018 62.048C123.679 62.688 124.01 63.616 124.01 64.832V70H122.57V65.04C122.57 64.1653 122.351 63.4987 121.914 63.04C121.477 62.5707 120.879 62.336 120.122 62.336C119.354 62.336 118.741 62.576 118.282 63.056C117.834 63.536 117.61 64.2347 117.61 65.152V70H116.154V61.232H117.61V62.48C117.898 62.032 118.287 61.6853 118.778 61.44C119.279 61.1947 119.829 61.072 120.426 61.072ZM125.844 65.584C125.844 64.688 126.026 63.904 126.388 63.232C126.751 62.5493 127.247 62.0213 127.876 61.648C128.516 61.2747 129.226 61.088 130.004 61.088C130.772 61.088 131.439 61.2533 132.004 61.584C132.57 61.9147 132.991 62.3307 133.268 62.832V61.232H134.74V70H133.268V68.368C132.98 68.88 132.548 69.3067 131.972 69.648C131.407 69.9787 130.746 70.144 129.988 70.144C129.21 70.144 128.506 69.952 127.876 69.568C127.247 69.184 126.751 68.6453 126.388 67.952C126.026 67.2587 125.844 66.4693 125.844 65.584ZM133.268 65.6C133.268 64.9387 133.135 64.3627 132.868 63.872C132.602 63.3813 132.239 63.008 131.78 62.752C131.332 62.4853 130.836 62.352 130.292 62.352C129.748 62.352 129.252 62.48 128.804 62.736C128.356 62.992 127.999 63.3653 127.732 63.856C127.466 64.3467 127.332 64.9227 127.332 65.584C127.332 66.256 127.466 66.8427 127.732 67.344C127.999 67.8347 128.356 68.2133 128.804 68.48C129.252 68.736 129.748 68.864 130.292 68.864C130.836 68.864 131.332 68.736 131.78 68.48C132.239 68.2133 132.602 67.8347 132.868 67.344C133.135 66.8427 133.268 66.2613 133.268 65.6ZM140.817 61.088C141.574 61.088 142.235 61.2533 142.801 61.584C143.377 61.9147 143.803 62.3307 144.081 62.832V61.232H145.553V70.192C145.553 70.992 145.382 71.7013 145.041 72.32C144.699 72.9493 144.209 73.44 143.569 73.792C142.939 74.144 142.203 74.32 141.361 74.32C140.209 74.32 139.249 74.048 138.481 73.504C137.713 72.96 137.259 72.2187 137.121 71.28H138.561C138.721 71.8133 139.051 72.24 139.553 72.56C140.054 72.8907 140.657 73.056 141.361 73.056C142.161 73.056 142.811 72.8053 143.313 72.304C143.825 71.8027 144.081 71.0987 144.081 70.192V68.352C143.793 68.864 143.366 69.2907 142.801 69.632C142.235 69.9733 141.574 70.144 140.817 70.144C140.038 70.144 139.329 69.952 138.689 69.568C138.059 69.184 137.563 68.6453 137.201 67.952C136.838 67.2587 136.657 66.4693 136.657 65.584C136.657 64.688 136.838 63.904 137.201 63.232C137.563 62.5493 138.059 62.0213 138.689 61.648C139.329 61.2747 140.038 61.088 140.817 61.088ZM144.081 65.6C144.081 64.9387 143.947 64.3627 143.681 63.872C143.414 63.3813 143.051 63.008 142.593 62.752C142.145 62.4853 141.649 62.352 141.105 62.352C140.561 62.352 140.065 62.48 139.617 62.736C139.169 62.992 138.811 63.3653 138.545 63.856C138.278 64.3467 138.145 64.9227 138.145 65.584C138.145 66.256 138.278 66.8427 138.545 67.344C138.811 67.8347 139.169 68.2133 139.617 68.48C140.065 68.736 140.561 68.864 141.105 68.864C141.649 68.864 142.145 68.736 142.593 68.48C143.051 68.2133 143.414 67.8347 143.681 67.344C143.947 66.8427 144.081 66.2613 144.081 65.6ZM156.013 65.28C156.013 65.5573 155.997 65.8507 155.965 66.16H148.957C149.011 67.024 149.304 67.7013 149.837 68.192C150.381 68.672 151.037 68.912 151.805 68.912C152.435 68.912 152.957 68.768 153.373 68.48C153.8 68.1813 154.099 67.7867 154.269 67.296H155.837C155.603 68.1387 155.133 68.8267 154.429 69.36C153.725 69.8827 152.851 70.144 151.805 70.144C150.973 70.144 150.227 69.9573 149.565 69.584C148.915 69.2107 148.403 68.6827 148.029 68C147.656 67.3067 147.469 66.5067 147.469 65.6C147.469 64.6933 147.651 63.8987 148.013 63.216C148.376 62.5333 148.883 62.0107 149.533 61.648C150.195 61.2747 150.952 61.088 151.805 61.088C152.637 61.088 153.373 61.2693 154.013 61.632C154.653 61.9947 155.144 62.496 155.485 63.136C155.837 63.7653 156.013 64.48 156.013 65.28ZM154.509 64.976C154.509 64.4213 154.387 63.9467 154.141 63.552C153.896 63.1467 153.56 62.8427 153.133 62.64C152.717 62.4267 152.253 62.32 151.741 62.32C151.005 62.32 150.376 62.5547 149.853 63.024C149.341 63.4933 149.048 64.144 148.973 64.976H154.509ZM159.391 62.656C159.647 62.1547 160.01 61.7653 160.479 61.488C160.959 61.2107 161.54 61.072 162.223 61.072V62.576H161.839C160.207 62.576 159.391 63.4613 159.391 65.232V70H157.935V61.232H159.391V62.656Z" fill="#FFFDFD" fill-opacity="0.55"/>
<defs>
<filter id="filter0_b_1_45" x="-50" y="-50" width="367" height="193" filterUnits="userSpaceOnUse" color-interpolation-filters="sRGB">
<feFlood flood-opacity="0" result="BackgroundImageFix"/>
<feGaussianBlur in="BackgroundImageFix" stdDeviation="25"/>
<feComposite in2="SourceAlpha" operator="in" result="effect1_backgroundBlur_1_45"/>
<feBlend mode="normal" in="SourceGraphic" in2="effect1_backgroundBlur_1_45" result="shape"/>
</filter>
<linearGradient id="paint0_linear_1_45" x1="-11.7931" y1="-6.73497" x2="250.696" y2="82.6542" gradientUnits="userSpaceOnUse">
<stop stop-color="white" stop-opacity="0.1"/>
<stop offset="1" stop-color="white" stop-opacity="0"/>
</linearGradient>
</defs>
</svg>
