<svg width="65" height="64" viewBox="0 0 65 64" fill="none" xmlns="http://www.w3.org/2000/svg">
<g opacity="0.78" clip-path="url(#clip0_1_239)">
<path d="M0 4.00006C0 1.79092 1.79086 6.10352e-05 4 6.10352e-05H61C63.2091 6.10352e-05 65 1.79092 65 4.00006V59.8234C65 62.0326 63.2091 63.8234 61 63.8234H4C1.79086 63.8234 0 62.0326 0 59.8234V4.00006Z" fill="#FF0066"/>
<path d="M22.1178 20.5382C24.1737 20.5088 25.819 18.8536 25.7992 16.8347C25.7792 14.8155 24.1016 13.192 22.0452 13.2018C19.9888 13.2115 18.3273 14.8507 18.327 16.8699C18.3287 17.3557 18.4283 17.8364 18.6201 18.2842C18.8119 18.7321 19.092 19.1382 19.4444 19.4793C19.7968 19.8203 20.2145 20.0895 20.6733 20.2713C21.1321 20.453 21.6231 20.5439 22.1178 20.5385V20.5382Z" fill="white"/>
<path d="M14.258 40.1781C14.0429 41.0814 13.9305 42.0053 13.9229 42.933C13.9229 46.1623 15.7063 48.3066 19.4971 48.3066C22.6405 48.3066 25.191 46.4737 27.0242 43.5124L25.9034 47.9289H32.1434L35.7134 33.8878C36.6051 30.3289 38.3314 28.4832 40.9522 28.4832C43.0139 28.4832 44.2959 29.7417 44.2959 31.8225C44.3061 32.4894 44.2121 33.154 44.0176 33.7933L42.1793 40.2496C41.9164 41.1388 41.7852 42.0605 41.7896 42.9863C41.7896 46.0498 43.6279 48.2966 47.473 48.2966C50.7621 48.2966 53.383 46.2184 54.8312 41.2377L52.3793 40.3057C51.1521 43.645 50.0941 44.2473 49.2593 44.2473C48.4247 44.2473 47.9748 43.7013 47.9748 42.6059C47.9989 42.0311 48.0923 41.4612 48.253 40.9081L50.0393 34.6155C50.4403 33.3217 50.6471 31.9774 50.653 30.625C50.653 25.9173 47.7539 23.4616 44.2413 23.4616C40.9522 23.4616 37.6088 26.3743 35.9368 29.4406L37.1614 23.9363H27.6323L26.2934 28.7869H30.7551L28.0096 39.5705C25.8514 44.2782 21.8892 44.3548 21.3925 44.2451C20.576 44.0636 20.056 43.7599 20.056 42.7131C20.0799 41.8657 20.2109 41.0245 20.446 40.2088L24.6268 23.9236H14.0397L12.7034 28.7742H17.1051L14.258 40.1781Z" fill="white"/>
</g>
<defs>
<clipPath id="clip0_1_239">
<rect width="65" height="63.8234" fill="white"/>
</clipPath>
</defs>
</svg>
