<svg width="65" height="64" viewBox="0 0 65 64" fill="none" xmlns="http://www.w3.org/2000/svg">
<g opacity="0.78" clip-path="url(#clip0_1_267)">
<path fill-rule="evenodd" clip-rule="evenodd" d="M13.6716 40.2192C13.6723 41.0976 13.4966 41.9675 13.1545 42.7791C12.8125 43.5907 12.3107 44.3281 11.678 44.9491C11.0453 45.57 10.2942 46.0624 9.46744 46.398C8.64073 46.7336 7.75474 46.9057 6.86017 46.9047C5.96606 46.905 5.08065 46.7323 4.25457 46.3965C3.42848 46.0606 2.67793 45.5681 2.04582 44.9472C1.41372 44.3263 0.912459 43.5891 0.570709 42.7779C0.228959 41.9666 0.0534208 41.0971 0.0541327 40.2192C0.0534204 39.3411 0.229048 38.4714 0.570967 37.66C0.912887 36.8485 1.41439 36.1113 2.04678 35.4903C2.67917 34.8694 3.43005 34.377 4.25644 34.0412C5.08284 33.7055 5.96854 33.5331 6.86288 33.5338H13.6743V40.2192H13.6716ZM17.076 40.2192C17.0753 39.3411 17.2509 38.4714 17.5928 37.66C17.9348 36.8485 18.4363 36.1113 19.0687 35.4903C19.701 34.8694 20.4519 34.377 21.2783 34.0412C22.1047 33.7055 22.9904 33.5331 23.8848 33.5338C24.7791 33.5331 25.6648 33.7055 26.4912 34.0412C27.3176 34.377 28.0685 34.8694 28.7009 35.4903C29.3333 36.1113 29.8348 36.8485 30.1767 37.66C30.5186 38.4714 30.6942 39.3411 30.6935 40.2192V56.9356C30.6942 57.8137 30.5186 58.6834 30.1767 59.4948C29.8348 60.3062 29.3333 61.0435 28.7009 61.6645C28.0685 62.2854 27.3176 62.7778 26.4912 63.1136C25.6648 63.4493 24.7791 63.6217 23.8848 63.621C22.9904 63.6217 22.1047 63.4493 21.2783 63.1136C20.4519 62.7778 19.701 62.2854 19.0687 61.6645C18.4363 61.0435 17.9348 60.3062 17.5928 59.4948C17.2509 58.6834 17.0753 57.8137 17.076 56.9356V40.2192Z" fill="#E01E5A"/>
<path fill-rule="evenodd" clip-rule="evenodd" d="M23.8848 13.3737C22.9902 13.3744 22.1043 13.2018 21.2777 12.8659C20.4512 12.53 19.7002 12.0374 19.0677 11.4162C18.4353 10.7949 17.9339 10.0573 17.5921 9.2456C17.2503 8.43386 17.075 7.5639 17.076 6.68553C17.0753 5.80739 17.251 4.93772 17.5929 4.12629C17.9348 3.31485 18.4363 2.57758 19.0687 1.95663C19.7011 1.33569 20.452 0.843268 21.2784 0.50754C22.1048 0.171811 22.9905 -0.000636285 23.8848 6.31543e-05C24.7791 -0.000636285 25.6648 0.171811 26.4912 0.50754C27.3176 0.843268 28.0685 1.33569 28.7009 1.95663C29.3333 2.57758 29.8348 3.31485 30.1767 4.12629C30.5186 4.93772 30.6943 5.80739 30.6935 6.68553V13.3763H23.8875L23.8848 13.3737ZM23.8848 16.7669C24.7791 16.7662 25.6648 16.9387 26.4912 17.2744C27.3176 17.6101 28.0685 18.1026 28.7009 18.7235C29.3333 19.3444 29.8348 20.0817 30.1767 20.8932C30.5186 21.7046 30.6943 22.5743 30.6935 23.4524C30.6943 24.3305 30.5186 25.2002 30.1767 26.0116C29.8348 26.8231 29.3333 27.5604 28.7009 28.1813C28.0685 28.8022 27.3176 29.2947 26.4912 29.6304C25.6648 29.9661 24.7791 30.1386 23.8848 30.1379H6.80875C5.91464 30.1386 5.02916 29.9662 4.20294 29.6306C3.37672 29.2951 2.62597 28.8029 1.99361 28.1822C1.36125 27.5616 0.859694 26.8246 0.517615 26.0135C0.175536 25.2024 -0.000354061 24.333 2.15823e-06 23.4551C-0.000710178 22.5769 0.174917 21.7072 0.516837 20.8958C0.858756 20.0844 1.36026 19.3471 1.99265 18.7262C2.62504 18.1052 3.37592 17.6128 4.20231 17.2771C5.02871 16.9413 5.91441 16.7689 6.80875 16.7696H23.8875L23.8848 16.7669Z" fill="#36C5F0"/>
<path fill-rule="evenodd" clip-rule="evenodd" d="M51.1738 23.4524C51.1731 22.574 51.3488 21.7041 51.6909 20.8925C52.0329 20.0809 52.5347 19.3435 53.1674 18.7226C53.8 18.1016 54.5512 17.6092 55.378 17.2736C56.2047 16.9381 57.0907 16.7659 57.9852 16.7669C58.8796 16.7662 59.7653 16.9387 60.5917 17.2744C61.4181 17.6101 62.1689 18.1026 62.8013 18.7235C63.4337 19.3444 63.9352 20.0817 64.2771 20.8932C64.6191 21.7046 64.7947 22.5743 64.794 23.4524C64.7947 24.3305 64.6191 25.2002 64.2771 26.0116C63.9352 26.8231 63.4337 27.5604 62.8013 28.1813C62.1689 28.8022 61.4181 29.2947 60.5917 29.6304C59.7653 29.9661 58.8796 30.1386 57.9852 30.1379H51.1738V23.4551V23.4524ZM47.7694 23.4524C47.7701 24.3305 47.5945 25.2002 47.2526 26.0116C46.9106 26.8231 46.4091 27.5604 45.7767 28.1813C45.1444 28.8022 44.3935 29.2947 43.5671 29.6304C42.7407 29.9661 41.855 30.1386 40.9606 30.1379C40.0661 30.1389 39.1801 29.9667 38.3534 29.6312C37.5267 29.2956 36.7755 28.8032 36.1428 28.1822C35.5101 27.5613 35.0084 26.8239 34.6663 26.0123C34.3242 25.2007 34.1485 24.3308 34.1492 23.4524V6.68554C34.1485 5.80717 34.3242 4.93728 34.6663 4.12568C35.0084 3.31407 35.5101 2.57667 36.1428 1.95569C36.7755 1.33472 37.5267 0.84235 38.3534 0.506778C39.1801 0.171206 40.0661 -0.000983485 40.9606 6.5802e-05C41.855 -0.000633637 42.7407 0.171814 43.5671 0.507542C44.3935 0.843271 45.1444 1.33569 45.7767 1.95664C46.4091 2.57758 46.9106 3.31486 47.2526 4.12629C47.5945 4.93773 47.7701 5.80739 47.7694 6.68554V23.4551V23.4524Z" fill="#2EB67D"/>
<path fill-rule="evenodd" clip-rule="evenodd" d="M40.9606 50.2474C41.8549 50.2467 42.7406 50.4192 43.567 50.7549C44.3934 51.0906 45.1443 51.5831 45.7767 52.204C46.4091 52.8249 46.9106 53.5622 47.2525 54.3737C47.5944 55.1851 47.7701 56.0548 47.7693 56.9329C47.7704 57.8113 47.5951 58.6812 47.2533 59.493C46.9115 60.3047 46.4101 61.0423 45.7777 61.6635C45.1452 62.2847 44.3942 62.7774 43.5677 63.1133C42.7411 63.4492 41.8552 63.6217 40.9606 63.621C40.066 63.6217 39.1801 63.4492 38.3535 63.1133C37.527 62.7774 36.776 62.2847 36.1435 61.6635C35.5111 61.0423 35.0097 60.3047 34.6679 59.493C34.3261 58.6812 34.1508 57.8113 34.1518 56.9329V50.2474H40.9606ZM40.9606 46.9047C40.0663 46.9054 39.1806 46.7329 38.3542 46.3972C37.5278 46.0615 36.7769 45.5691 36.1445 44.9481C35.5121 44.3272 35.0106 43.5899 34.6687 42.7785C34.3268 41.967 34.1511 41.0974 34.1518 40.2192C34.1511 39.3411 34.3268 38.4714 34.6687 37.66C35.0106 36.8485 35.5121 36.1113 36.1445 35.4903C36.7769 34.8694 37.5278 34.377 38.3542 34.0412C39.1806 33.7055 40.0663 33.5331 40.9606 33.5338H58.0366C58.931 33.5331 59.8167 33.7055 60.6431 34.0412C61.4695 34.377 62.2203 34.8694 62.8527 35.4903C63.4851 36.1113 63.9866 36.8485 64.3286 37.66C64.6705 38.4714 64.8461 39.3411 64.8454 40.2192C64.8461 41.0974 64.6705 41.967 64.3286 42.7785C63.9866 43.5899 63.4851 44.3272 62.8527 44.9481C62.2203 45.5691 61.4695 46.0615 60.6431 46.3972C59.8167 46.7329 58.931 46.9054 58.0366 46.9047H40.9606Z" fill="#ECB22E"/>
</g>
<defs>
<clipPath id="clip0_1_267">
<rect width="65" height="63.8231" fill="white"/>
</clipPath>
</defs>
</svg>
